<svg id="Layer_2" data-name="Layer 2" xmlns="http://www.w3.org/2000/svg" viewBox="0 0 178.14 139.77"><defs><style>.cls-1,.cls-3{fill:#474030;}.cls-2{fill:#f7ca67;}.cls-3{stroke:#f7ca67;stroke-miterlimit:10;stroke-width:6px;}</style></defs><rect class="cls-1" x="68" y="112.13" width="42.14" height="25.63" rx="5.13"/><path class="cls-2" d="M109.23,121.73a3.13,3.13,0,0,1,3.13,3.13v15.38a3.13,3.13,0,0,1-3.13,3.12H77.35a3.13,3.13,0,0,1-3.13-3.12V124.86a3.13,3.13,0,0,1,3.13-3.13h31.88m0-4H77.35a7.14,7.14,0,0,0-7.13,7.13v15.38a7.13,7.13,0,0,0,7.13,7.12h31.88a7.13,7.13,0,0,0,7.13-7.12V124.86a7.14,7.14,0,0,0-7.13-7.13Z" transform="translate(-4.23 -7.6)"/><rect class="cls-1" x="2" y="127.22" width="174.14" height="10.55" rx="5.13"/><path class="cls-2" d="M175.23,136.82a3.13,3.13,0,0,1,3.13,3.12v.3a3.13,3.13,0,0,1-3.13,3.12H11.35a3.12,3.12,0,0,1-3.12-3.12v-.3a3.12,3.12,0,0,1,3.12-3.12H175.23m0-4H11.35a7.12,7.12,0,0,0-7.12,7.12v.3a7.12,7.12,0,0,0,7.12,7.12H175.23a7.13,7.13,0,0,0,7.13-7.12v-.3a7.13,7.13,0,0,0-7.13-7.12Z" transform="translate(-4.23 -7.6)"/><rect class="cls-3" x="4" y="3" width="170.14" height="111.13" rx="11.54"/><rect class="cls-1" x="24.72" y="20.5" width="55.71" height="30.85" rx="5.13"/><path class="cls-2" d="M79.52,30.1a3.13,3.13,0,0,1,3.13,3.13v20.6A3.13,3.13,0,0,1,79.52,57H34.07a3.13,3.13,0,0,1-3.13-3.12V33.23a3.13,3.13,0,0,1,3.13-3.13H79.52m0-4H34.07a7.14,7.14,0,0,0-7.13,7.13v20.6A7.13,7.13,0,0,0,34.07,61H79.52a7.13,7.13,0,0,0,7.13-7.12V33.23a7.14,7.14,0,0,0-7.13-7.13Z" transform="translate(-4.23 -7.6)"/><rect class="cls-1" x="24.72" y="65.78" width="55.71" height="30.85" rx="5.13"/><path class="cls-2" d="M79.52,75.38a3.13,3.13,0,0,1,3.13,3.12V99.1a3.13,3.13,0,0,1-3.13,3.13H34.07a3.13,3.13,0,0,1-3.13-3.13V78.5a3.13,3.13,0,0,1,3.13-3.12H79.52m0-4H34.07a7.13,7.13,0,0,0-7.13,7.12V99.1a7.14,7.14,0,0,0,7.13,7.13H79.52a7.14,7.14,0,0,0,7.13-7.13V78.5a7.13,7.13,0,0,0-7.13-7.12Z" transform="translate(-4.23 -7.6)"/><rect class="cls-1" x="97.71" y="65.78" width="55.71" height="30.85" rx="5.13"/><path class="cls-2" d="M152.51,75.38a3.13,3.13,0,0,1,3.13,3.12V99.1a3.13,3.13,0,0,1-3.13,3.13H107.06a3.13,3.13,0,0,1-3.12-3.13V78.5a3.12,3.12,0,0,1,3.12-3.12h45.45m0-4H107.06a7.12,7.12,0,0,0-7.12,7.12V99.1a7.13,7.13,0,0,0,7.12,7.13h45.45a7.14,7.14,0,0,0,7.13-7.13V78.5a7.13,7.13,0,0,0-7.13-7.12Z" transform="translate(-4.23 -7.6)"/><rect class="cls-1" x="97.71" y="20.5" width="55.71" height="30.85" rx="5.13"/><path class="cls-2" d="M152.51,30.1a3.13,3.13,0,0,1,3.13,3.13v20.6A3.13,3.13,0,0,1,152.51,57H107.06a3.12,3.12,0,0,1-3.12-3.12V33.23a3.13,3.13,0,0,1,3.12-3.13h45.45m0-4H107.06a7.13,7.13,0,0,0-7.12,7.13v20.6A7.12,7.12,0,0,0,107.06,61h45.45a7.13,7.13,0,0,0,7.13-7.12V33.23a7.14,7.14,0,0,0-7.13-7.13Z" transform="translate(-4.23 -7.6)"/></svg>