<?xml version="1.0" encoding="utf-8"?>
<!-- Generator: Adobe Illustrator 25.3.1, SVG Export Plug-In . SVG Version: 6.00 Build 0)  -->
<svg version="1.1" id="Layer_2_1_" xmlns="http://www.w3.org/2000/svg" xmlns:xlink="http://www.w3.org/1999/xlink" x="0px" y="0px"
	 viewBox="0 0 178.1 145.2" style="enable-background:new 0 0 178.1 145.2;" xml:space="preserve">
<style type="text/css">
	.st0{fill:#653527;}
	.st1{fill:#F7CA67;}
	.st2{fill:none;stroke:#F7CA67;stroke-width:8;stroke-miterlimit:10;}
</style>
<path class="st0" d="M73.1,117.6H105c2.8,0,5.1,2.3,5.1,5.1v15.4c0,2.8-2.3,5.1-5.1,5.1H73.1c-2.8,0-5.1-2.3-5.1-5.1v-15.4
	C68,119.9,70.3,117.6,73.1,117.6z"/>
<path class="st1" d="M105,119.6c1.7,0,3.1,1.4,3.1,3.1v15.4c0,1.7-1.4,3.1-3.1,3.1H73.1c-1.7,0-3.1-1.4-3.1-3.1v-15.4
	c0-1.7,1.4-3.1,3.1-3.1H105L105,119.6z M105,115.6H73.1c-3.9,0-7.1,3.2-7.1,7.1v15.4c0,3.9,3.2,7.1,7.1,7.1H105
	c3.9,0,7.1-3.2,7.1-7.1v-15.4C112.1,118.8,108.9,115.6,105,115.6z"/>
<path class="st0" d="M7.1,132.6H171c2.8,0,5.1,2.3,5.1,5.1v0.3c0,2.8-2.3,5.1-5.1,5.1H7.1c-2.8,0-5.1-2.3-5.1-5.1v-0.3
	C2,134.9,4.3,132.6,7.1,132.6z"/>
<path class="st1" d="M171,134.6c1.7,0,3.1,1.4,3.1,3.1v0.3c0,1.7-1.4,3.1-3.1,3.1H7.1c-1.7,0-3.1-1.4-3.1-3.1v-0.3
	c0-1.7,1.4-3.1,3.1-3.1H171L171,134.6z M171,130.6H7.1c-3.9,0-7.1,3.2-7.1,7.1v0.3c0,3.9,3.2,7.1,7.1,7.1H171c3.9,0,7.1-3.2,7.1-7.1
	v-0.3C178.1,133.8,174.9,130.6,171,130.6z"/>
<path class="st0" d="M15.5,8.4h147.1c6.4,0,11.5,5.2,11.5,11.5v88c0,6.4-5.2,11.5-11.5,11.5H15.5C9.2,119.6,4,114.4,4,108V20
	C4,13.6,9.2,8.4,15.5,8.4z"/>
<path class="st2" d="M15.5,8.4h147.1c6.4,0,11.5,5.2,11.5,11.5v88c0,6.4-5.2,11.5-11.5,11.5H15.5C9.2,119.6,4,114.4,4,108V20
	C4,13.6,9.2,8.4,15.5,8.4z"/>
<path class="st0" d="M29.8,25.9h45.5c2.8,0,5.1,2.3,5.1,5.1v20.6c0,2.8-2.3,5.1-5.1,5.1H29.8c-2.8,0-5.1-2.3-5.1-5.1V31.1
	C24.7,28.2,27,25.9,29.8,25.9z"/>
<path class="st1" d="M75.3,27.9c1.7,0,3.1,1.4,3.1,3.1v20.6c0,1.7-1.4,3.1-3.1,3.2c0,0,0,0,0,0H29.8c-1.7,0-3.1-1.4-3.1-3.1V31.1
	c0-1.7,1.4-3.1,3.1-3.1l0,0L75.3,27.9L75.3,27.9z M75.3,23.9H29.8c-3.9,0-7.1,3.2-7.1,7.1v20.6c0,3.9,3.2,7.1,7.1,7.2c0,0,0,0,0,0
	h45.4c3.9,0,7.1-3.2,7.1-7.1V31.1C82.4,27.1,79.2,23.9,75.3,23.9z"/>
<path class="st0" d="M29.8,71.2h45.5c2.8,0,5.1,2.3,5.1,5.1v20.6c0,2.8-2.3,5.1-5.1,5.1H29.8c-2.8,0-5.1-2.3-5.1-5.1V76.3
	C24.7,73.5,27,71.2,29.8,71.2z"/>
<path class="st1" d="M75.3,73.2c1.7,0,3.1,1.4,3.1,3.1v20.6c0,1.7-1.4,3.1-3.1,3.1H29.8c-1.7,0-3.1-1.4-3.1-3.1V76.3
	c0-1.7,1.4-3.1,3.1-3.1H75.3L75.3,73.2z M75.3,69.2H29.8c-3.9,0-7.1,3.2-7.1,7.1v20.6c0,3.9,3.2,7.1,7.1,7.1h45.4
	c3.9,0,7.1-3.2,7.1-7.1V76.3C82.4,72.4,79.2,69.2,75.3,69.2z"/>
<path class="st0" d="M102.8,71.2h45.4c2.8,0,5.1,2.3,5.1,5.1v20.6c0,2.8-2.3,5.1-5.1,5.1h-45.4c-2.8,0-5.1-2.3-5.1-5.1V76.3
	C97.7,73.5,100,71.2,102.8,71.2z"/>
<path class="st1" d="M148.3,73.2c1.7,0,3.1,1.4,3.1,3.1v20.6c0,1.7-1.4,3.1-3.1,3.1l0,0h-45.5c-1.7,0-3.1-1.4-3.1-3.1V76.3
	c0-1.7,1.4-3.1,3.1-3.1h0H148.3L148.3,73.2z M148.3,69.2h-45.5c-3.9,0-7.1,3.2-7.1,7.1v0v20.6c0,3.9,3.2,7.1,7.1,7.1h45.5
	c3.9,0,7.1-3.2,7.1-7.1V76.3C155.4,72.4,152.2,69.2,148.3,69.2z"/>
<path class="st0" d="M102.8,25.9h45.4c2.8,0,5.1,2.3,5.1,5.1v20.6c0,2.8-2.3,5.1-5.1,5.1h-45.4c-2.8,0-5.1-2.3-5.1-5.1V31.1
	C97.7,28.2,100,25.9,102.8,25.9z"/>
<path class="st1" d="M148.3,27.9c1.7,0,3.1,1.4,3.1,3.1v0v20.6c0,1.7-1.4,3.1-3.1,3.2c0,0,0,0,0,0h-45.5c-1.7,0-3.1-1.4-3.1-3.1
	c0,0,0,0,0,0V31.1c0-1.7,1.4-3.1,3.1-3.1L148.3,27.9L148.3,27.9z M148.3,23.9h-45.5c-3.9,0-7.1,3.2-7.1,7.1v20.6
	c0,3.9,3.1,7.1,7.1,7.2c0,0,0,0,0.1,0h45.5c3.9,0,7.1-3.2,7.1-7.1V31.1C155.4,27.1,152.2,23.9,148.3,23.9z"/>
</svg>
